<svg width="16" height="16" viewBox="0 0 16 16" fill="none" xmlns="http://www.w3.org/2000/svg">
<g id="Frame 587">
<g id="SS">
<path d="M7.01654 5.599C6.9422 5.30955 6.7852 5.0766 6.54554 4.90015C6.24393 4.67808 5.83461 4.56705 5.31756 4.56705C4.96623 4.56705 4.6696 4.61677 4.42765 4.7162C4.18569 4.81232 4.00009 4.94655 3.87083 5.1189C3.74488 5.29125 3.68191 5.48679 3.68191 5.70554C3.67528 5.88784 3.71339 6.04693 3.79625 6.18282C3.88243 6.31871 4.00009 6.43637 4.14924 6.5358C4.29838 6.63192 4.47073 6.71643 4.66628 6.78935C4.86183 6.85895 5.07064 6.91861 5.2927 6.96833L6.20748 7.18708C6.6516 7.28651 7.05927 7.41909 7.43049 7.58481C7.8017 7.75053 8.12319 7.95436 8.39498 8.19631C8.66676 8.43826 8.87722 8.7233 9.02637 9.05142C9.17883 9.37955 9.25672 9.75573 9.26003 10.18C9.25881 10.4103 9.23629 10.6294 9.19249 10.8371C9.1178 11.1912 8.98122 11.5124 8.78276 11.8007C8.59356 12.0765 8.35303 12.3149 8.06116 12.5161C7.8724 12.6462 7.66218 12.7607 7.43049 12.8597C6.84384 13.1082 6.13622 13.2325 5.30762 13.2325C4.48565 13.2325 3.76974 13.1066 3.15989 12.8547C2.55336 12.6028 2.0794 12.2299 1.73801 11.7361C1.39995 11.2389 1.22263 10.6241 1.20605 9.89162H3.28915C3.31235 10.233 3.41013 10.518 3.58248 10.7467C3.75814 10.9721 3.9918 11.1428 4.28347 11.2588C4.57845 11.3715 4.91155 11.4278 5.28276 11.4278C5.64734 11.4278 5.96387 11.3748 6.23233 11.2688C6.50411 11.1627 6.71458 11.0152 6.86373 10.8263C7.01253 10.6375 7.08745 10.42 7.08745 10.175C7.08745 10.0733 7.07402 9.97888 7.04716 9.89162C7.01361 9.7826 6.95909 9.68483 6.88361 9.5983C6.75104 9.44252 6.55549 9.30995 6.29696 9.20057C6.04176 9.0912 5.72855 8.99177 5.35733 8.90228L4.24867 8.62387C3.39024 8.41506 2.71245 8.08859 2.21529 7.64446C1.71813 7.20034 1.47121 6.60209 1.47452 5.84972C1.47121 5.23324 1.63527 4.69465 1.96671 4.23395C2.30146 3.77325 2.76051 3.41364 3.34384 3.15512C3.92717 2.8966 4.59005 2.76733 5.33248 2.76733C6.08816 2.76733 6.74772 2.8966 7.31117 3.15512C7.60066 3.28717 7.8573 3.44559 8.08107 3.63039C7.85782 3.80739 7.6643 4.00857 7.50054 4.23395C7.21483 4.63109 7.05349 5.08611 7.01654 5.599Z" fill="#CD163D"/>
<path fill-rule="evenodd" clip-rule="evenodd" d="M7.01654 5.599C7.01062 5.68109 7.00789 5.76466 7.00835 5.84972C7.00503 6.60209 7.25196 7.20034 7.74912 7.64446C8.24627 8.08859 8.92407 8.41506 9.7825 8.62387L10.8912 8.90228C11.2624 8.99177 11.5756 9.0912 11.8308 9.20057C12.0893 9.30995 12.2849 9.44252 12.4174 9.5983C12.5533 9.75408 12.6213 9.94631 12.6213 10.175C12.6213 10.4203 12.5467 10.6374 12.3976 10.8263C12.2484 11.0152 12.0379 11.1627 11.7662 11.2688C11.4977 11.3748 11.1812 11.4278 10.8166 11.4278C10.4454 11.4278 10.1123 11.3715 9.8173 11.2588C9.56595 11.1588 9.35768 11.0183 9.19249 10.8371C9.1178 11.1912 8.98122 11.5124 8.78276 11.8007C8.59356 12.0765 8.35303 12.3149 8.06116 12.5161C8.25296 12.6464 8.46382 12.7592 8.69372 12.8547C9.30357 13.1066 10.0195 13.2325 10.8414 13.2325C11.67 13.2325 12.3777 13.1082 12.9643 12.8597C13.5543 12.6078 14.005 12.2548 14.3166 11.8007C14.6315 11.3433 14.7905 10.8031 14.7939 10.18C14.7905 9.75573 14.7127 9.37955 14.5602 9.05142C14.411 8.7233 14.2006 8.43826 13.9288 8.19631C13.657 7.95436 13.3355 7.75053 12.9643 7.58481C12.5931 7.41909 12.1854 7.28651 11.7413 7.18708L10.8265 6.96833C10.6045 6.91861 10.3957 6.85895 10.2001 6.78935C10.0046 6.71643 9.83221 6.63192 9.68306 6.5358C9.53392 6.43637 9.41625 6.31871 9.33008 6.18282C9.24722 6.04693 9.20911 5.88784 9.21573 5.70554C9.21573 5.48679 9.27871 5.29125 9.40466 5.1189C9.53392 4.94655 9.71952 4.81232 9.96147 4.7162C10.2034 4.61677 10.5001 4.56705 10.8514 4.56705C11.3684 4.56705 11.7778 4.67808 12.0794 4.90015C12.381 5.12221 12.5517 5.43376 12.5914 5.83481H14.6547C14.6447 5.22827 14.4823 4.69465 14.1674 4.23395C13.8526 3.77325 13.4118 3.41364 12.845 3.15512C12.2815 2.8966 11.622 2.76733 10.8663 2.76733C10.1239 2.76733 9.461 2.8966 8.87767 3.15512C8.57971 3.28717 8.31418 3.44559 8.08107 3.63039C7.85782 3.80739 7.6643 4.00857 7.50054 4.23395C7.21483 4.63109 7.05349 5.08611 7.01654 5.599Z" fill="#CD163D"/>
</g>
</g>
</svg>
